<mxfile host="65bd71144e">
    <diagram id="QFkiKQc7EZRCazRGIbj8" name="LocalCluster">
        <mxGraphModel dx="1350" dy="680" grid="1" gridSize="10" guides="1" tooltips="1" connect="1" arrows="1" fold="1" page="1" pageScale="1" pageWidth="827" pageHeight="1169" math="0" shadow="0">
            <root>
                <mxCell id="0"/>
                <mxCell id="1" parent="0"/>
                <mxCell id="2" value="LocalCluster Startup Chart" style="swimlane;html=1;childLayout=stackLayout;startSize=20;rounded=0;shadow=0;comic=0;labelBackgroundColor=none;strokeWidth=1;fontFamily=Verdana;fontSize=12;align=center;" parent="1" vertex="1">
                    <mxGeometry x="40" y="20" width="1250" height="420" as="geometry">
                        <mxRectangle x="40" y="20" width="60" height="20" as="alternateBounds"/>
                    </mxGeometry>
                </mxCell>
                <mxCell id="3" value="mars/deploy/oscar/local.py::LocalCluster" style="swimlane;html=1;startSize=20;" parent="2" vertex="1">
                    <mxGeometry y="20" width="250" height="400" as="geometry">
                        <mxRectangle y="20" width="30" height="970" as="alternateBounds"/>
                    </mxGeometry>
                </mxCell>
                <mxCell id="64" value="LocalCluster::__init__" style="rounded=0;whiteSpace=wrap;html=1;" parent="3" vertex="1">
                    <mxGeometry x="40" y="40" width="170" height="40" as="geometry"/>
                </mxCell>
                <mxCell id="68" value="" style="html=1;entryX=0;entryY=0.5;entryDx=0;entryDy=0;exitX=0.171;exitY=1;exitDx=0;exitDy=0;edgeStyle=orthogonalEdgeStyle;exitPerimeter=0;" parent="3" source="65" target="67" edge="1">
                    <mxGeometry relative="1" as="geometry"/>
                </mxCell>
                <mxCell id="65" value="LocalCluster::start" style="rounded=0;whiteSpace=wrap;html=1;" parent="3" vertex="1">
                    <mxGeometry x="40" y="120" width="170" height="40" as="geometry"/>
                </mxCell>
                <mxCell id="67" value="_start_supervisor_pool" style="rounded=0;whiteSpace=wrap;html=1;" parent="3" vertex="1">
                    <mxGeometry x="90" y="200" width="140" height="40" as="geometry"/>
                </mxCell>
                <mxCell id="69" value="_start_worker_pool" style="rounded=0;whiteSpace=wrap;html=1;" parent="3" vertex="1">
                    <mxGeometry x="90" y="320" width="140" height="40" as="geometry"/>
                </mxCell>
                <mxCell id="71" value="" style="html=1;entryX=0;entryY=0.5;entryDx=0;entryDy=0;exitX=0.171;exitY=1.075;exitDx=0;exitDy=0;edgeStyle=orthogonalEdgeStyle;exitPerimeter=0;" parent="3" source="65" target="69" edge="1">
                    <mxGeometry relative="1" as="geometry">
                        <mxPoint x="79.06999999999994" y="170" as="sourcePoint"/>
                        <mxPoint x="100" y="230" as="targetPoint"/>
                    </mxGeometry>
                </mxCell>
                <mxCell id="12" value="mars/deploy/oscar/pool.py" style="swimlane;html=1;startSize=20;" parent="2" vertex="1">
                    <mxGeometry x="250" y="20" width="250" height="400" as="geometry">
                        <mxRectangle x="250" y="20" width="30" height="970" as="alternateBounds"/>
                    </mxGeometry>
                </mxCell>
                <mxCell id="74" value="create_supervisor_actor_pool" style="rounded=0;whiteSpace=wrap;html=1;" parent="12" vertex="1">
                    <mxGeometry x="40" y="200" width="170" height="40" as="geometry"/>
                </mxCell>
                <mxCell id="88" value="create_worker_actor_pool" style="rounded=0;whiteSpace=wrap;html=1;" parent="12" vertex="1">
                    <mxGeometry x="40" y="320" width="170" height="40" as="geometry"/>
                </mxCell>
                <mxCell id="28" value="mars/oscar/api.py" style="swimlane;html=1;startSize=20;" parent="2" vertex="1">
                    <mxGeometry x="500" y="20" width="250" height="400" as="geometry">
                        <mxRectangle x="500" y="20" width="30" height="970" as="alternateBounds"/>
                    </mxGeometry>
                </mxCell>
                <mxCell id="76" value="create_actor_pool" style="rounded=0;whiteSpace=wrap;html=1;" parent="28" vertex="1">
                    <mxGeometry x="40" y="200" width="170" height="40" as="geometry"/>
                </mxCell>
                <mxCell id="92" value="create_actor_pool" style="rounded=0;whiteSpace=wrap;html=1;" parent="28" vertex="1">
                    <mxGeometry x="40" y="320" width="170" height="40" as="geometry"/>
                </mxCell>
                <mxCell id="75" value="" style="edgeStyle=orthogonalEdgeStyle;html=1;" parent="2" source="67" target="74" edge="1">
                    <mxGeometry relative="1" as="geometry"/>
                </mxCell>
                <mxCell id="77" value="" style="edgeStyle=orthogonalEdgeStyle;html=1;" parent="2" source="74" target="76" edge="1">
                    <mxGeometry relative="1" as="geometry"/>
                </mxCell>
                <mxCell id="80" value="mars/oscar/backends/mars/backend.py" style="swimlane;html=1;startSize=20;" parent="2" vertex="1">
                    <mxGeometry x="750" y="20" width="250" height="400" as="geometry">
                        <mxRectangle x="750" y="20" width="30" height="970" as="alternateBounds"/>
                    </mxGeometry>
                </mxCell>
                <mxCell id="81" value="MarsActorBackend::create_actor_pool" style="rounded=0;whiteSpace=wrap;html=1;" parent="80" vertex="1">
                    <mxGeometry x="15" y="200" width="220" height="40" as="geometry"/>
                </mxCell>
                <mxCell id="94" value="MarsActorBackend::create_actor_pool" style="rounded=0;whiteSpace=wrap;html=1;" parent="80" vertex="1">
                    <mxGeometry x="15" y="320" width="220" height="40" as="geometry"/>
                </mxCell>
                <mxCell id="82" value="" style="edgeStyle=orthogonalEdgeStyle;html=1;" parent="2" source="76" target="81" edge="1">
                    <mxGeometry relative="1" as="geometry"/>
                </mxCell>
                <mxCell id="89" value="" style="edgeStyle=orthogonalEdgeStyle;html=1;" parent="2" source="69" target="88" edge="1">
                    <mxGeometry relative="1" as="geometry"/>
                </mxCell>
                <mxCell id="93" value="" style="edgeStyle=orthogonalEdgeStyle;html=1;" parent="2" source="88" target="92" edge="1">
                    <mxGeometry relative="1" as="geometry"/>
                </mxCell>
                <mxCell id="95" value="" style="edgeStyle=orthogonalEdgeStyle;html=1;" parent="2" source="92" target="94" edge="1">
                    <mxGeometry relative="1" as="geometry"/>
                </mxCell>
                <mxCell id="84" value="&lt;span&gt;&lt;b&gt;mars/oscar/backends/pool.py&lt;/b&gt;&lt;/span&gt;" style="swimlane;html=1;startSize=20;fontStyle=0" parent="1" vertex="1">
                    <mxGeometry x="1040" y="40" width="250" height="400" as="geometry">
                        <mxRectangle x="1040" y="40" width="30" height="970" as="alternateBounds"/>
                    </mxGeometry>
                </mxCell>
                <mxCell id="85" value="create_actor_pool" style="rounded=0;whiteSpace=wrap;html=1;" parent="84" vertex="1">
                    <mxGeometry x="15" y="200" width="220" height="40" as="geometry"/>
                </mxCell>
                <mxCell id="87" value="MainActorPool" style="text;html=1;align=center;verticalAlign=middle;resizable=0;points=[];autosize=1;strokeColor=none;fillColor=none;" parent="84" vertex="1">
                    <mxGeometry x="80" y="240" width="90" height="20" as="geometry"/>
                </mxCell>
                <mxCell id="96" value="create_actor_pool" style="rounded=0;whiteSpace=wrap;html=1;" parent="84" vertex="1">
                    <mxGeometry x="15" y="320" width="220" height="40" as="geometry"/>
                </mxCell>
                <mxCell id="98" value="MainActorPool" style="text;html=1;align=center;verticalAlign=middle;resizable=0;points=[];autosize=1;strokeColor=none;fillColor=none;" parent="84" vertex="1">
                    <mxGeometry x="80" y="360" width="90" height="20" as="geometry"/>
                </mxCell>
                <mxCell id="86" value="" style="edgeStyle=orthogonalEdgeStyle;html=1;" parent="1" source="81" target="85" edge="1">
                    <mxGeometry relative="1" as="geometry"/>
                </mxCell>
                <mxCell id="97" value="" style="edgeStyle=orthogonalEdgeStyle;html=1;" parent="1" source="94" target="96" edge="1">
                    <mxGeometry relative="1" as="geometry"/>
                </mxCell>
                <mxCell id="ktGRSIwgT4mP3_VFBTmT-98" value="mars/deploy/oscar/service.py" style="swimlane;html=1;startSize=20;" parent="1" vertex="1">
                    <mxGeometry x="290" y="440" width="250" height="240" as="geometry">
                        <mxRectangle x="250" y="20" width="30" height="970" as="alternateBounds"/>
                    </mxGeometry>
                </mxCell>
                <mxCell id="ktGRSIwgT4mP3_VFBTmT-99" value="start_supervisor" style="rounded=0;whiteSpace=wrap;html=1;" parent="ktGRSIwgT4mP3_VFBTmT-98" vertex="1">
                    <mxGeometry x="40" y="50" width="170" height="40" as="geometry"/>
                </mxCell>
                <mxCell id="ktGRSIwgT4mP3_VFBTmT-100" value="start_worker" style="rounded=0;whiteSpace=wrap;html=1;" parent="ktGRSIwgT4mP3_VFBTmT-98" vertex="1">
                    <mxGeometry x="40" y="170" width="170" height="40" as="geometry"/>
                </mxCell>
                <mxCell id="ktGRSIwgT4mP3_VFBTmT-101" value="mars/services/core.py" style="swimlane;html=1;startSize=20;" parent="1" vertex="1">
                    <mxGeometry x="540" y="440" width="250" height="240" as="geometry">
                        <mxRectangle x="250" y="20" width="30" height="970" as="alternateBounds"/>
                    </mxGeometry>
                </mxCell>
                <mxCell id="ktGRSIwgT4mP3_VFBTmT-102" value="start_services" style="rounded=0;whiteSpace=wrap;html=1;" parent="ktGRSIwgT4mP3_VFBTmT-101" vertex="1">
                    <mxGeometry x="50" y="110" width="170" height="40" as="geometry"/>
                </mxCell>
                <mxCell id="ktGRSIwgT4mP3_VFBTmT-103" value="" style="edgeStyle=orthogonalEdgeStyle;html=1;" parent="1" source="72" target="ktGRSIwgT4mP3_VFBTmT-99" edge="1">
                    <mxGeometry relative="1" as="geometry"/>
                </mxCell>
                <mxCell id="ktGRSIwgT4mP3_VFBTmT-109" value="" style="edgeStyle=orthogonalEdgeStyle;html=1;entryX=0;entryY=0.5;entryDx=0;entryDy=0;" parent="1" source="72" target="ktGRSIwgT4mP3_VFBTmT-100" edge="1">
                    <mxGeometry relative="1" as="geometry">
                        <mxPoint x="200" y="610" as="targetPoint"/>
                    </mxGeometry>
                </mxCell>
                <mxCell id="72" value="_start_service" style="rounded=0;whiteSpace=wrap;html=1;" parent="1" vertex="1">
                    <mxGeometry x="130" y="490" width="140" height="40" as="geometry"/>
                </mxCell>
                <mxCell id="73" value="" style="html=1;entryX=0;entryY=0.5;entryDx=0;entryDy=0;exitX=0.171;exitY=1;exitDx=0;exitDy=0;edgeStyle=orthogonalEdgeStyle;exitPerimeter=0;" parent="1" source="65" target="72" edge="1">
                    <mxGeometry relative="1" as="geometry">
                        <mxPoint x="119.06999999999994" y="213" as="sourcePoint"/>
                        <mxPoint x="140" y="390" as="targetPoint"/>
                    </mxGeometry>
                </mxCell>
                <mxCell id="ktGRSIwgT4mP3_VFBTmT-105" value="" style="edgeStyle=orthogonalEdgeStyle;html=1;" parent="1" source="ktGRSIwgT4mP3_VFBTmT-99" target="ktGRSIwgT4mP3_VFBTmT-102" edge="1">
                    <mxGeometry relative="1" as="geometry">
                        <mxPoint x="580" y="510" as="targetPoint"/>
                    </mxGeometry>
                </mxCell>
                <mxCell id="ktGRSIwgT4mP3_VFBTmT-107" value="" style="edgeStyle=orthogonalEdgeStyle;html=1;entryX=0.5;entryY=1;entryDx=0;entryDy=0;" parent="1" source="ktGRSIwgT4mP3_VFBTmT-100" target="ktGRSIwgT4mP3_VFBTmT-102" edge="1">
                    <mxGeometry relative="1" as="geometry">
                        <mxPoint x="580" y="630" as="targetPoint"/>
                    </mxGeometry>
                </mxCell>
            </root>
        </mxGraphModel>
    </diagram>
    <diagram id="QByJS0T62ogpKbG-tC6d" name="RayCluster ">
        <mxGraphModel dx="1350" dy="680" grid="1" gridSize="10" guides="1" tooltips="1" connect="1" arrows="1" fold="1" page="1" pageScale="1" pageWidth="827" pageHeight="1169" math="0" shadow="0">
            <root>
                <mxCell id="uE7uh73sg-ytjMksY1x0-0"/>
                <mxCell id="uE7uh73sg-ytjMksY1x0-1" parent="uE7uh73sg-ytjMksY1x0-0"/>
                <mxCell id="OkEwAmOYQBdkDuDIqdTm-0" value="RayCluster Startup Chart" style="swimlane;html=1;childLayout=stackLayout;startSize=20;rounded=0;shadow=0;comic=0;labelBackgroundColor=none;strokeWidth=1;fontFamily=Verdana;fontSize=12;align=center;" vertex="1" parent="uE7uh73sg-ytjMksY1x0-1">
                    <mxGeometry x="40" y="20" width="1520" height="420" as="geometry">
                        <mxRectangle x="40" y="20" width="60" height="20" as="alternateBounds"/>
                    </mxGeometry>
                </mxCell>
                <mxCell id="OkEwAmOYQBdkDuDIqdTm-1" value="mars/deploy/oscar/ray.py::RayCluster" style="swimlane;html=1;startSize=20;" vertex="1" parent="OkEwAmOYQBdkDuDIqdTm-0">
                    <mxGeometry y="20" width="250" height="400" as="geometry">
                        <mxRectangle y="20" width="30" height="970" as="alternateBounds"/>
                    </mxGeometry>
                </mxCell>
                <mxCell id="OkEwAmOYQBdkDuDIqdTm-2" value="RayCluster::__init__" style="rounded=0;whiteSpace=wrap;html=1;" vertex="1" parent="OkEwAmOYQBdkDuDIqdTm-1">
                    <mxGeometry x="40" y="40" width="170" height="40" as="geometry"/>
                </mxCell>
                <mxCell id="OkEwAmOYQBdkDuDIqdTm-3" value="RayCluster::start" style="rounded=0;whiteSpace=wrap;html=1;" vertex="1" parent="OkEwAmOYQBdkDuDIqdTm-1">
                    <mxGeometry x="40" y="120" width="170" height="40" as="geometry"/>
                </mxCell>
                <mxCell id="OkEwAmOYQBdkDuDIqdTm-4" value="mars/deploy/oscar/pool.py" style="swimlane;html=1;startSize=20;" vertex="1" parent="OkEwAmOYQBdkDuDIqdTm-0">
                    <mxGeometry x="250" y="20" width="250" height="400" as="geometry">
                        <mxRectangle x="250" y="20" width="30" height="970" as="alternateBounds"/>
                    </mxGeometry>
                </mxCell>
                <mxCell id="OkEwAmOYQBdkDuDIqdTm-5" value="create_supervisor_actor_pool" style="rounded=0;whiteSpace=wrap;html=1;" vertex="1" parent="OkEwAmOYQBdkDuDIqdTm-4">
                    <mxGeometry x="40" y="150" width="170" height="40" as="geometry"/>
                </mxCell>
                <mxCell id="OkEwAmOYQBdkDuDIqdTm-6" value="create_worker_actor_pool" style="rounded=0;whiteSpace=wrap;html=1;" vertex="1" parent="OkEwAmOYQBdkDuDIqdTm-4">
                    <mxGeometry x="40" y="320" width="170" height="40" as="geometry"/>
                </mxCell>
                <mxCell id="OkEwAmOYQBdkDuDIqdTm-7" value="mars/oscar/api.py" style="swimlane;html=1;startSize=20;" vertex="1" parent="OkEwAmOYQBdkDuDIqdTm-0">
                    <mxGeometry x="500" y="20" width="250" height="400" as="geometry">
                        <mxRectangle x="500" y="20" width="30" height="400" as="alternateBounds"/>
                    </mxGeometry>
                </mxCell>
                <mxCell id="OkEwAmOYQBdkDuDIqdTm-8" value="create_actor_pool" style="rounded=0;whiteSpace=wrap;html=1;" vertex="1" parent="OkEwAmOYQBdkDuDIqdTm-7">
                    <mxGeometry x="40" y="150" width="170" height="40" as="geometry"/>
                </mxCell>
                <mxCell id="OkEwAmOYQBdkDuDIqdTm-9" value="create_actor_pool" style="rounded=0;whiteSpace=wrap;html=1;" vertex="1" parent="OkEwAmOYQBdkDuDIqdTm-7">
                    <mxGeometry x="40" y="320" width="170" height="40" as="geometry"/>
                </mxCell>
                <mxCell id="OkEwAmOYQBdkDuDIqdTm-10" value="" style="edgeStyle=orthogonalEdgeStyle;html=1;" edge="1" parent="OkEwAmOYQBdkDuDIqdTm-0" source="OkEwAmOYQBdkDuDIqdTm-5" target="OkEwAmOYQBdkDuDIqdTm-8">
                    <mxGeometry relative="1" as="geometry"/>
                </mxCell>
                <mxCell id="OkEwAmOYQBdkDuDIqdTm-11" value="" style="edgeStyle=orthogonalEdgeStyle;html=1;entryX=0;entryY=0.5;entryDx=0;entryDy=0;" edge="1" parent="OkEwAmOYQBdkDuDIqdTm-0" source="OkEwAmOYQBdkDuDIqdTm-8" target="OkEwAmOYQBdkDuDIqdTm-16">
                    <mxGeometry relative="1" as="geometry">
                        <mxPoint x="765" y="190" as="targetPoint"/>
                    </mxGeometry>
                </mxCell>
                <mxCell id="OkEwAmOYQBdkDuDIqdTm-12" value="" style="edgeStyle=orthogonalEdgeStyle;html=1;" edge="1" parent="OkEwAmOYQBdkDuDIqdTm-0" source="OkEwAmOYQBdkDuDIqdTm-6" target="OkEwAmOYQBdkDuDIqdTm-9">
                    <mxGeometry relative="1" as="geometry"/>
                </mxCell>
                <mxCell id="OkEwAmOYQBdkDuDIqdTm-13" value="" style="html=1;entryX=0;entryY=0.5;entryDx=0;entryDy=0;exitX=0.171;exitY=1;exitDx=0;exitDy=0;edgeStyle=orthogonalEdgeStyle;exitPerimeter=0;" edge="1" parent="OkEwAmOYQBdkDuDIqdTm-0" source="OkEwAmOYQBdkDuDIqdTm-3" target="OkEwAmOYQBdkDuDIqdTm-5">
                    <mxGeometry relative="1" as="geometry">
                        <mxPoint x="90" y="240" as="targetPoint"/>
                    </mxGeometry>
                </mxCell>
                <mxCell id="OkEwAmOYQBdkDuDIqdTm-14" value="" style="html=1;entryX=0;entryY=0.5;entryDx=0;entryDy=0;exitX=0.171;exitY=1.075;exitDx=0;exitDy=0;edgeStyle=orthogonalEdgeStyle;exitPerimeter=0;" edge="1" parent="OkEwAmOYQBdkDuDIqdTm-0" source="OkEwAmOYQBdkDuDIqdTm-3" target="OkEwAmOYQBdkDuDIqdTm-6">
                    <mxGeometry relative="1" as="geometry">
                        <mxPoint x="79.06999999999994" y="190" as="sourcePoint"/>
                        <mxPoint x="90" y="360" as="targetPoint"/>
                        <Array as="points">
                            <mxPoint x="69" y="360"/>
                        </Array>
                    </mxGeometry>
                </mxCell>
                <mxCell id="OkEwAmOYQBdkDuDIqdTm-15" value="mars/oscar/backends/ray/backend.py" style="swimlane;html=1;startSize=20;" vertex="1" parent="OkEwAmOYQBdkDuDIqdTm-0">
                    <mxGeometry x="750" y="20" width="250" height="400" as="geometry">
                        <mxRectangle x="500" y="20" width="30" height="400" as="alternateBounds"/>
                    </mxGeometry>
                </mxCell>
                <mxCell id="OkEwAmOYQBdkDuDIqdTm-16" value="RayAcrtorBackend::create_actor_pool" style="rounded=0;whiteSpace=wrap;html=1;" vertex="1" parent="OkEwAmOYQBdkDuDIqdTm-15">
                    <mxGeometry x="15" y="150" width="220" height="40" as="geometry"/>
                </mxCell>
                <mxCell id="OkEwAmOYQBdkDuDIqdTm-17" value="RayActorBackend::create_actor_pool" style="rounded=0;whiteSpace=wrap;html=1;" vertex="1" parent="OkEwAmOYQBdkDuDIqdTm-15">
                    <mxGeometry x="15" y="320" width="220" height="40" as="geometry"/>
                </mxCell>
                <mxCell id="OkEwAmOYQBdkDuDIqdTm-18" value="pool_handle = RayAcrtorBackend::_create_ray_pools" style="rounded=0;whiteSpace=wrap;html=1;" vertex="1" parent="OkEwAmOYQBdkDuDIqdTm-15">
                    <mxGeometry x="15" y="218" width="220" height="40" as="geometry"/>
                </mxCell>
                <mxCell id="OkEwAmOYQBdkDuDIqdTm-19" value="" style="edgeStyle=none;html=1;" edge="1" parent="OkEwAmOYQBdkDuDIqdTm-15" source="OkEwAmOYQBdkDuDIqdTm-16" target="OkEwAmOYQBdkDuDIqdTm-18">
                    <mxGeometry relative="1" as="geometry"/>
                </mxCell>
                <mxCell id="OkEwAmOYQBdkDuDIqdTm-20" value="" style="edgeStyle=orthogonalEdgeStyle;html=1;entryX=0;entryY=0.5;entryDx=0;entryDy=0;" edge="1" parent="OkEwAmOYQBdkDuDIqdTm-0" source="OkEwAmOYQBdkDuDIqdTm-9" target="OkEwAmOYQBdkDuDIqdTm-17">
                    <mxGeometry relative="1" as="geometry">
                        <mxPoint x="765" y="360" as="targetPoint"/>
                    </mxGeometry>
                </mxCell>
                <mxCell id="OkEwAmOYQBdkDuDIqdTm-21" value="&lt;b&gt;mars/oscar/backends/ray/pool.py&lt;/b&gt;" style="swimlane;html=1;startSize=20;" vertex="1" parent="OkEwAmOYQBdkDuDIqdTm-0">
                    <mxGeometry x="1000" y="20" width="250" height="400" as="geometry">
                        <mxRectangle x="500" y="20" width="30" height="400" as="alternateBounds"/>
                    </mxGeometry>
                </mxCell>
                <mxCell id="OkEwAmOYQBdkDuDIqdTm-22" value="&lt;b&gt;mars/oscar/backends/pool.py&lt;/b&gt;" style="swimlane;html=1;startSize=20;" vertex="1" parent="OkEwAmOYQBdkDuDIqdTm-0">
                    <mxGeometry x="1250" y="20" width="270" height="400" as="geometry">
                        <mxRectangle x="500" y="20" width="30" height="400" as="alternateBounds"/>
                    </mxGeometry>
                </mxCell>
                <mxCell id="OkEwAmOYQBdkDuDIqdTm-23" value="create_actor_pool" style="rounded=0;whiteSpace=wrap;html=1;" vertex="1" parent="OkEwAmOYQBdkDuDIqdTm-22">
                    <mxGeometry x="30" y="321" width="210" height="40" as="geometry"/>
                </mxCell>
                <mxCell id="OkEwAmOYQBdkDuDIqdTm-24" value="mars/deploy/oscar/service.py" style="swimlane;html=1;startSize=20;" vertex="1" parent="uE7uh73sg-ytjMksY1x0-1">
                    <mxGeometry x="320" y="440" width="220" height="240" as="geometry">
                        <mxRectangle x="320" y="440" width="30" height="970" as="alternateBounds"/>
                    </mxGeometry>
                </mxCell>
                <mxCell id="OkEwAmOYQBdkDuDIqdTm-25" value="start_supervisor" style="rounded=0;whiteSpace=wrap;html=1;" vertex="1" parent="OkEwAmOYQBdkDuDIqdTm-24">
                    <mxGeometry x="25" y="50" width="170" height="40" as="geometry"/>
                </mxCell>
                <mxCell id="OkEwAmOYQBdkDuDIqdTm-26" value="start_worker" style="rounded=0;whiteSpace=wrap;html=1;" vertex="1" parent="OkEwAmOYQBdkDuDIqdTm-24">
                    <mxGeometry x="25" y="170" width="170" height="40" as="geometry"/>
                </mxCell>
                <mxCell id="OkEwAmOYQBdkDuDIqdTm-27" value="" style="edgeStyle=orthogonalEdgeStyle;html=1;" edge="1" parent="uE7uh73sg-ytjMksY1x0-1" source="OkEwAmOYQBdkDuDIqdTm-28" target="OkEwAmOYQBdkDuDIqdTm-26">
                    <mxGeometry relative="1" as="geometry"/>
                </mxCell>
                <mxCell id="OkEwAmOYQBdkDuDIqdTm-28" value="ClusterStarteActor::start_worker" style="rounded=0;whiteSpace=wrap;html=1;" vertex="1" parent="uE7uh73sg-ytjMksY1x0-1">
                    <mxGeometry x="120" y="610" width="180" height="40" as="geometry"/>
                </mxCell>
                <mxCell id="OkEwAmOYQBdkDuDIqdTm-29" value="" style="html=1;entryX=0;entryY=0.5;entryDx=0;entryDy=0;exitX=0.171;exitY=1;exitDx=0;exitDy=0;edgeStyle=orthogonalEdgeStyle;exitPerimeter=0;" edge="1" parent="uE7uh73sg-ytjMksY1x0-1" source="OkEwAmOYQBdkDuDIqdTm-3" target="OkEwAmOYQBdkDuDIqdTm-25">
                    <mxGeometry relative="1" as="geometry">
                        <mxPoint x="119.06999999999994" y="213" as="sourcePoint"/>
                        <mxPoint x="140" y="390" as="targetPoint"/>
                    </mxGeometry>
                </mxCell>
                <mxCell id="OkEwAmOYQBdkDuDIqdTm-30" value="mars/services/core.py" style="swimlane;html=1;startSize=20;" vertex="1" parent="uE7uh73sg-ytjMksY1x0-1">
                    <mxGeometry x="540" y="440" width="220" height="240" as="geometry">
                        <mxRectangle x="540" y="440" width="30" height="970" as="alternateBounds"/>
                    </mxGeometry>
                </mxCell>
                <mxCell id="OkEwAmOYQBdkDuDIqdTm-31" value="start_services" style="rounded=0;whiteSpace=wrap;html=1;" vertex="1" parent="OkEwAmOYQBdkDuDIqdTm-30">
                    <mxGeometry x="25" y="110" width="170" height="40" as="geometry"/>
                </mxCell>
                <mxCell id="OkEwAmOYQBdkDuDIqdTm-32" value="" style="edgeStyle=orthogonalEdgeStyle;html=1;" edge="1" parent="uE7uh73sg-ytjMksY1x0-1" source="OkEwAmOYQBdkDuDIqdTm-25" target="OkEwAmOYQBdkDuDIqdTm-31">
                    <mxGeometry relative="1" as="geometry"/>
                </mxCell>
                <mxCell id="OkEwAmOYQBdkDuDIqdTm-33" value="" style="html=1;entryX=0;entryY=0.5;entryDx=0;entryDy=0;exitX=0.171;exitY=1.001;exitDx=0;exitDy=0;exitPerimeter=0;edgeStyle=orthogonalEdgeStyle;" edge="1" parent="uE7uh73sg-ytjMksY1x0-1" source="OkEwAmOYQBdkDuDIqdTm-3" target="OkEwAmOYQBdkDuDIqdTm-28">
                    <mxGeometry relative="1" as="geometry">
                        <mxPoint x="110" y="200" as="sourcePoint"/>
                        <mxPoint x="340" y="530" as="targetPoint"/>
                    </mxGeometry>
                </mxCell>
                <mxCell id="OkEwAmOYQBdkDuDIqdTm-34" value="" style="edgeStyle=orthogonalEdgeStyle;html=1;entryX=0.5;entryY=1;entryDx=0;entryDy=0;" edge="1" parent="uE7uh73sg-ytjMksY1x0-1" source="OkEwAmOYQBdkDuDIqdTm-26" target="OkEwAmOYQBdkDuDIqdTm-31">
                    <mxGeometry relative="1" as="geometry">
                        <mxPoint x="580" y="630" as="targetPoint"/>
                    </mxGeometry>
                </mxCell>
                <mxCell id="OkEwAmOYQBdkDuDIqdTm-35" value="pool_handle.main_pool._start.remote()" style="rounded=0;whiteSpace=wrap;html=1;" vertex="1" parent="uE7uh73sg-ytjMksY1x0-1">
                    <mxGeometry x="805" y="298" width="220" height="40" as="geometry"/>
                </mxCell>
                <mxCell id="OkEwAmOYQBdkDuDIqdTm-36" value="" style="endArrow=classic;html=1;exitX=0.5;exitY=0;exitDx=0;exitDy=0;entryX=0.5;entryY=1;entryDx=0;entryDy=0;" edge="1" parent="uE7uh73sg-ytjMksY1x0-1" source="OkEwAmOYQBdkDuDIqdTm-17" target="OkEwAmOYQBdkDuDIqdTm-35">
                    <mxGeometry width="50" height="50" relative="1" as="geometry">
                        <mxPoint x="80" y="540" as="sourcePoint"/>
                        <mxPoint x="130" y="490" as="targetPoint"/>
                    </mxGeometry>
                </mxCell>
                <mxCell id="OkEwAmOYQBdkDuDIqdTm-37" value="RayCluster Startup Chart" style="swimlane;html=1;childLayout=stackLayout;startSize=20;rounded=0;shadow=0;comic=0;labelBackgroundColor=none;strokeWidth=1;fontFamily=Verdana;fontSize=12;align=center;" vertex="1" parent="uE7uh73sg-ytjMksY1x0-1">
                    <mxGeometry x="40" y="20" width="1250" height="420" as="geometry">
                        <mxRectangle x="40" y="20" width="60" height="20" as="alternateBounds"/>
                    </mxGeometry>
                </mxCell>
                <mxCell id="OkEwAmOYQBdkDuDIqdTm-38" value="mars/deploy/oscar/ray.py::RayCluster" style="swimlane;html=1;startSize=20;" vertex="1" parent="OkEwAmOYQBdkDuDIqdTm-37">
                    <mxGeometry y="20" width="250" height="400" as="geometry">
                        <mxRectangle y="20" width="30" height="970" as="alternateBounds"/>
                    </mxGeometry>
                </mxCell>
                <mxCell id="OkEwAmOYQBdkDuDIqdTm-39" value="RayCluster::__init__" style="rounded=0;whiteSpace=wrap;html=1;" vertex="1" parent="OkEwAmOYQBdkDuDIqdTm-38">
                    <mxGeometry x="40" y="40" width="170" height="40" as="geometry"/>
                </mxCell>
                <mxCell id="OkEwAmOYQBdkDuDIqdTm-40" value="RayCluster::start" style="rounded=0;whiteSpace=wrap;html=1;" vertex="1" parent="OkEwAmOYQBdkDuDIqdTm-38">
                    <mxGeometry x="40" y="120" width="170" height="40" as="geometry"/>
                </mxCell>
                <mxCell id="OkEwAmOYQBdkDuDIqdTm-41" value="mars/deploy/oscar/pool.py" style="swimlane;html=1;startSize=20;" vertex="1" parent="OkEwAmOYQBdkDuDIqdTm-37">
                    <mxGeometry x="250" y="20" width="250" height="400" as="geometry">
                        <mxRectangle x="250" y="20" width="30" height="970" as="alternateBounds"/>
                    </mxGeometry>
                </mxCell>
                <mxCell id="OkEwAmOYQBdkDuDIqdTm-42" value="create_supervisor_actor_pool" style="rounded=0;whiteSpace=wrap;html=1;" vertex="1" parent="OkEwAmOYQBdkDuDIqdTm-41">
                    <mxGeometry x="40" y="150" width="170" height="40" as="geometry"/>
                </mxCell>
                <mxCell id="OkEwAmOYQBdkDuDIqdTm-43" value="create_worker_actor_pool" style="rounded=0;whiteSpace=wrap;html=1;" vertex="1" parent="OkEwAmOYQBdkDuDIqdTm-41">
                    <mxGeometry x="40" y="320" width="170" height="40" as="geometry"/>
                </mxCell>
                <mxCell id="OkEwAmOYQBdkDuDIqdTm-44" value="mars/oscar/api.py" style="swimlane;html=1;startSize=20;" vertex="1" parent="OkEwAmOYQBdkDuDIqdTm-37">
                    <mxGeometry x="500" y="20" width="250" height="400" as="geometry">
                        <mxRectangle x="500" y="20" width="30" height="400" as="alternateBounds"/>
                    </mxGeometry>
                </mxCell>
                <mxCell id="OkEwAmOYQBdkDuDIqdTm-45" value="create_actor_pool" style="rounded=0;whiteSpace=wrap;html=1;" vertex="1" parent="OkEwAmOYQBdkDuDIqdTm-44">
                    <mxGeometry x="40" y="150" width="170" height="40" as="geometry"/>
                </mxCell>
                <mxCell id="OkEwAmOYQBdkDuDIqdTm-46" value="create_actor_pool" style="rounded=0;whiteSpace=wrap;html=1;" vertex="1" parent="OkEwAmOYQBdkDuDIqdTm-44">
                    <mxGeometry x="40" y="320" width="170" height="40" as="geometry"/>
                </mxCell>
                <mxCell id="OkEwAmOYQBdkDuDIqdTm-47" value="" style="edgeStyle=orthogonalEdgeStyle;html=1;" edge="1" parent="OkEwAmOYQBdkDuDIqdTm-37" source="OkEwAmOYQBdkDuDIqdTm-42" target="OkEwAmOYQBdkDuDIqdTm-45">
                    <mxGeometry relative="1" as="geometry"/>
                </mxCell>
                <mxCell id="OkEwAmOYQBdkDuDIqdTm-48" value="mars/oscar/backends/ray/backend.py" style="swimlane;html=1;startSize=20;" vertex="1" parent="OkEwAmOYQBdkDuDIqdTm-37">
                    <mxGeometry x="750" y="20" width="250" height="400" as="geometry">
                        <mxRectangle x="750" y="20" width="30" height="400" as="alternateBounds"/>
                    </mxGeometry>
                </mxCell>
                <mxCell id="OkEwAmOYQBdkDuDIqdTm-49" value="" style="edgeStyle=none;html=1;" edge="1" parent="OkEwAmOYQBdkDuDIqdTm-48" source="OkEwAmOYQBdkDuDIqdTm-50" target="OkEwAmOYQBdkDuDIqdTm-52">
                    <mxGeometry relative="1" as="geometry"/>
                </mxCell>
                <mxCell id="OkEwAmOYQBdkDuDIqdTm-50" value="RayAcrtorBackend::create_actor_pool" style="rounded=0;whiteSpace=wrap;html=1;" vertex="1" parent="OkEwAmOYQBdkDuDIqdTm-48">
                    <mxGeometry x="15" y="150" width="220" height="40" as="geometry"/>
                </mxCell>
                <mxCell id="OkEwAmOYQBdkDuDIqdTm-51" value="RayActorBackend::create_actor_pool" style="rounded=0;whiteSpace=wrap;html=1;" vertex="1" parent="OkEwAmOYQBdkDuDIqdTm-48">
                    <mxGeometry x="15" y="320" width="220" height="40" as="geometry"/>
                </mxCell>
                <mxCell id="OkEwAmOYQBdkDuDIqdTm-52" value="pool_handle = RayAcrtorBackend::_create_ray_pools" style="rounded=0;whiteSpace=wrap;html=1;" vertex="1" parent="OkEwAmOYQBdkDuDIqdTm-48">
                    <mxGeometry x="15" y="218" width="220" height="40" as="geometry"/>
                </mxCell>
                <mxCell id="OkEwAmOYQBdkDuDIqdTm-53" value="pool_handle.main_pool._start.remote()" style="rounded=0;whiteSpace=wrap;html=1;" vertex="1" parent="OkEwAmOYQBdkDuDIqdTm-48">
                    <mxGeometry x="15" y="258" width="220" height="40" as="geometry"/>
                </mxCell>
                <mxCell id="OkEwAmOYQBdkDuDIqdTm-54" value="" style="endArrow=classic;html=1;exitX=0.5;exitY=0;exitDx=0;exitDy=0;entryX=0.5;entryY=1;entryDx=0;entryDy=0;" edge="1" parent="OkEwAmOYQBdkDuDIqdTm-48" source="OkEwAmOYQBdkDuDIqdTm-51" target="OkEwAmOYQBdkDuDIqdTm-53">
                    <mxGeometry width="50" height="50" relative="1" as="geometry">
                        <mxPoint x="80" y="540" as="sourcePoint"/>
                        <mxPoint x="130" y="490" as="targetPoint"/>
                    </mxGeometry>
                </mxCell>
                <mxCell id="OkEwAmOYQBdkDuDIqdTm-55" value="" style="edgeStyle=orthogonalEdgeStyle;html=1;" edge="1" parent="OkEwAmOYQBdkDuDIqdTm-37" source="OkEwAmOYQBdkDuDIqdTm-45" target="OkEwAmOYQBdkDuDIqdTm-50">
                    <mxGeometry relative="1" as="geometry"/>
                </mxCell>
                <mxCell id="OkEwAmOYQBdkDuDIqdTm-56" value="" style="edgeStyle=orthogonalEdgeStyle;html=1;" edge="1" parent="OkEwAmOYQBdkDuDIqdTm-37" source="OkEwAmOYQBdkDuDIqdTm-43" target="OkEwAmOYQBdkDuDIqdTm-46">
                    <mxGeometry relative="1" as="geometry"/>
                </mxCell>
                <mxCell id="OkEwAmOYQBdkDuDIqdTm-57" value="" style="edgeStyle=orthogonalEdgeStyle;html=1;" edge="1" parent="OkEwAmOYQBdkDuDIqdTm-37" source="OkEwAmOYQBdkDuDIqdTm-46" target="OkEwAmOYQBdkDuDIqdTm-51">
                    <mxGeometry relative="1" as="geometry"/>
                </mxCell>
                <mxCell id="OkEwAmOYQBdkDuDIqdTm-58" value="" style="html=1;entryX=0;entryY=0.5;entryDx=0;entryDy=0;exitX=0.171;exitY=1;exitDx=0;exitDy=0;edgeStyle=orthogonalEdgeStyle;exitPerimeter=0;" edge="1" parent="OkEwAmOYQBdkDuDIqdTm-37" source="OkEwAmOYQBdkDuDIqdTm-40" target="OkEwAmOYQBdkDuDIqdTm-42">
                    <mxGeometry relative="1" as="geometry">
                        <mxPoint x="90" y="240" as="targetPoint"/>
                    </mxGeometry>
                </mxCell>
                <mxCell id="OkEwAmOYQBdkDuDIqdTm-59" value="" style="html=1;entryX=0;entryY=0.5;entryDx=0;entryDy=0;exitX=0.171;exitY=1.075;exitDx=0;exitDy=0;edgeStyle=orthogonalEdgeStyle;exitPerimeter=0;" edge="1" parent="OkEwAmOYQBdkDuDIqdTm-37" source="OkEwAmOYQBdkDuDIqdTm-40" target="OkEwAmOYQBdkDuDIqdTm-43">
                    <mxGeometry relative="1" as="geometry">
                        <mxPoint x="79.06999999999994" y="190" as="sourcePoint"/>
                        <mxPoint x="90" y="360" as="targetPoint"/>
                        <Array as="points">
                            <mxPoint x="69" y="360"/>
                        </Array>
                    </mxGeometry>
                </mxCell>
                <mxCell id="OkEwAmOYQBdkDuDIqdTm-60" value="" style="edgeStyle=elbowEdgeStyle;html=1;entryX=0.5;entryY=0;entryDx=0;entryDy=0;" edge="1" parent="uE7uh73sg-ytjMksY1x0-1" source="OkEwAmOYQBdkDuDIqdTm-61" target="OkEwAmOYQBdkDuDIqdTm-66">
                    <mxGeometry relative="1" as="geometry"/>
                </mxCell>
                <mxCell id="OkEwAmOYQBdkDuDIqdTm-61" value="RayMainActorPool::create_sub_pool" style="rounded=0;whiteSpace=wrap;html=1;" vertex="1" parent="uE7uh73sg-ytjMksY1x0-1">
                    <mxGeometry x="1060" y="191" width="210" height="40" as="geometry"/>
                </mxCell>
                <mxCell id="OkEwAmOYQBdkDuDIqdTm-62" value="" style="edgeStyle=elbowEdgeStyle;html=1;" edge="1" parent="uE7uh73sg-ytjMksY1x0-1" source="OkEwAmOYQBdkDuDIqdTm-63" target="OkEwAmOYQBdkDuDIqdTm-23">
                    <mxGeometry relative="1" as="geometry"/>
                </mxCell>
                <mxCell id="OkEwAmOYQBdkDuDIqdTm-63" value="RayMainPool::start" style="rounded=0;whiteSpace=wrap;html=1;" vertex="1" parent="uE7uh73sg-ytjMksY1x0-1">
                    <mxGeometry x="1060" y="361" width="210" height="40" as="geometry"/>
                </mxCell>
                <mxCell id="OkEwAmOYQBdkDuDIqdTm-64" value="" style="edgeStyle=elbowEdgeStyle;html=1;exitX=1;exitY=0.5;exitDx=0;exitDy=0;" edge="1" parent="uE7uh73sg-ytjMksY1x0-1" source="OkEwAmOYQBdkDuDIqdTm-53" target="OkEwAmOYQBdkDuDIqdTm-63">
                    <mxGeometry relative="1" as="geometry">
                        <mxPoint x="1025" y="381" as="sourcePoint"/>
                    </mxGeometry>
                </mxCell>
                <mxCell id="OkEwAmOYQBdkDuDIqdTm-65" value="" style="edgeStyle=elbowEdgeStyle;html=1;entryX=0;entryY=0.5;entryDx=0;entryDy=0;exitX=1;exitY=0.5;exitDx=0;exitDy=0;" edge="1" parent="uE7uh73sg-ytjMksY1x0-1" source="OkEwAmOYQBdkDuDIqdTm-52" target="OkEwAmOYQBdkDuDIqdTm-61">
                    <mxGeometry relative="1" as="geometry">
                        <mxPoint x="1025" y="251" as="sourcePoint"/>
                    </mxGeometry>
                </mxCell>
                <mxCell id="OkEwAmOYQBdkDuDIqdTm-66" value="ray.remote(RaySubPool)" style="rounded=0;whiteSpace=wrap;html=1;" vertex="1" parent="uE7uh73sg-ytjMksY1x0-1">
                    <mxGeometry x="1110" y="269" width="160" height="40" as="geometry"/>
                </mxCell>
                <mxCell id="OkEwAmOYQBdkDuDIqdTm-67" value="ray.remote(RayMainPool)" style="rounded=0;whiteSpace=wrap;html=1;" vertex="1" parent="uE7uh73sg-ytjMksY1x0-1">
                    <mxGeometry x="1110" y="309" width="160" height="40" as="geometry"/>
                </mxCell>
                <mxCell id="OkEwAmOYQBdkDuDIqdTm-68" value="" style="edgeStyle=elbowEdgeStyle;html=1;entryX=0;entryY=0.5;entryDx=0;entryDy=0;exitX=1;exitY=0.5;exitDx=0;exitDy=0;" edge="1" parent="uE7uh73sg-ytjMksY1x0-1" source="OkEwAmOYQBdkDuDIqdTm-52" target="OkEwAmOYQBdkDuDIqdTm-67">
                    <mxGeometry relative="1" as="geometry">
                        <mxPoint x="1035" y="288" as="sourcePoint"/>
                        <mxPoint x="1070" y="248" as="targetPoint"/>
                    </mxGeometry>
                </mxCell>
            </root>
        </mxGraphModel>
    </diagram>
</mxfile>